<?xml version="1.0" encoding="utf-8"?>
<svg viewBox="0 0 500 500" xmlns="http://www.w3.org/2000/svg">
  <path class="cls-1" d="M 0.007 249.809 C -0.169 241.481 3.148 234.499 8.803 228.811 C 14.456 223.121 21.452 219.727 29.942 219.911 L 220.069 219.911 L 220.069 217.952 L 220.069 29.89 C 219.885 21.578 223.283 14.602 228.983 8.906 C 234.677 3.217 241.671 0 250.007 0 C 258.358 0 265.35 3.145 271.034 8.786 C 276.726 14.434 280.12 21.425 279.936 29.91 L 279.936 220.256 L 281.897 220.256 L 470.088 220.256 C 478.422 220.08 485.447 223.354 491.098 229.044 C 496.827 234.646 500 241.671 500 250.173 C 500 258.691 496.855 265.675 491.218 271.31 C 485.573 276.952 478.575 280.265 470.069 280.089 L 279.936 280.089 L 279.936 282.048 L 279.936 470.11 C 280.12 478.422 276.724 485.4 271.026 491.096 C 265.334 496.784 258.342 500 250.007 500 C 241.656 500 234.661 496.855 228.975 491.214 C 223.281 485.566 219.885 478.575 220.069 470.09 L 220.069 280.089 L 218.109 280.089 L 29.923 280.089 C 21.59 280.265 14.562 276.991 8.913 271.301 C 3.178 265.693 -0.177 258.658 0.007 250.173 L 0.007 249.809 Z" style="fill: rgb(255, 255, 255);"/>
</svg>