<?xml version="1.0" encoding="UTF-8"?><svg id="Layer_1" xmlns="http://www.w3.org/2000/svg" viewBox="0 0 17.33 19.63"><defs><style>.cls-1{fill:#f62e48;}</style></defs><path class="cls-1" d="M4.51,19.63H12.83c1.2,0,1.89-.63,1.94-1.82l.56-12.72h1.22c.43,0,.77-.33,.77-.77s-.34-.76-.77-.76h-3.82v-1.32c0-1.4-.91-2.23-2.41-2.23h-3.34c-1.5,0-2.4,.83-2.4,2.23v1.32H.77c-.42,0-.77,.33-.77,.76s.35,.77,.77,.77h1.24l.55,12.72c.05,1.19,.75,1.82,1.94,1.82ZM6.4,2.31c0-.4,.27-.66,.71-.66h3.1c.45,0,.72,.26,.72,.66v1.24H6.4v-1.24Zm-.54,14.64c-.35,0-.6-.23-.61-.58l-.26-9.36c0-.34,.23-.58,.6-.58s.6,.23,.61,.58l.26,9.36c0,.34-.23,.58-.6,.58Zm2.81,0c-.36,0-.62-.24-.62-.58V7.01c0-.34,.25-.58,.62-.58s.62,.24,.62,.58v9.36c0,.34-.25,.58-.62,.58Zm2.81,0c-.37,0-.61-.24-.6-.58l.26-9.36c0-.35,.25-.57,.61-.57,.37,0,.61,.23,.6,.58l-.26,9.35c0,.35-.25,.58-.61,.58Z"/></svg>