<?xml version="1.0" encoding="UTF-8"?><svg id="Layer_1" xmlns="http://www.w3.org/2000/svg" viewBox="0 0 12.99 12.99"><defs><style>.cls-1{fill:#fff;}.cls-2{fill:#babab8;stroke:#babab8;stroke-miterlimit:10;stroke-width:.75px;}</style></defs><circle class="cls-2" cx="6.49" cy="6.5" r="6.12"/><path class="cls-1" d="M5.81,9.52c.24,0,.45-.12,.59-.34l3.01-4.7c.09-.14,.17-.3,.17-.45,0-.34-.3-.56-.61-.56-.2,0-.38,.11-.52,.34l-2.66,4.26-1.25-1.59c-.16-.21-.32-.28-.52-.28-.33,0-.59,.26-.59,.59,0,.16,.06,.31,.17,.46l1.59,1.94c.18,.23,.38,.34,.63,.34Z"/></svg>