<?xml version="1.0" encoding="UTF-8"?><svg id="Layer_1" xmlns="http://www.w3.org/2000/svg" viewBox="0 0 16.41 16.41"><defs><style>.cls-1{fill:#fff;}</style></defs><path class="cls-1" d="M2.88,16.41H13.53c1.9,0,2.88-.98,2.88-2.86V2.86c0-1.88-.98-2.86-2.88-2.86H2.88C.98,0,0,.98,0,2.86V13.55c0,1.88,.98,2.86,2.88,2.86Zm3.3-4.15c-.6,0-.91-.38-.91-.99V4.99c0-.62,.31-1,.91-1h4.16c.44,0,.73,.25,.73,.69s-.29,.69-.73,.69h-3.34v2.06h3.15c.4,0,.69,.22,.69,.64s-.28,.62-.69,.62h-3.15v2.17h3.34c.44,0,.73,.25,.73,.69s-.29,.69-.73,.69H6.19Z"/></svg>