<?xml version="1.0" encoding="UTF-8"?><svg id="Layer_1" xmlns="http://www.w3.org/2000/svg" viewBox="0 0 32 31.21"><defs><style>.cls-1{fill:#a1a1a6;}</style></defs><path class="cls-1" d="M16,0C7.16,0,0,7.17,0,16c0,7.07,4.58,13.07,10.94,15.18,.8,.15,1.09-.34,1.09-.77,0-.38,0-1.39-.02-2.72-4.45,.96-5.39-2.15-5.39-2.15-.73-1.84-1.78-2.34-1.78-2.34-1.45-.99,.11-.97,.11-.97,1.6,.11,2.45,1.65,2.45,1.65,1.43,2.45,3.74,1.74,4.66,1.33,.14-1.03,.56-1.74,1.01-2.14-3.55-.4-7.29-1.78-7.29-7.91,0-1.75,.62-3.18,1.64-4.3-.18-.4-.72-2.03,.14-4.24,0,0,1.34-.43,4.4,1.64,1.28-.35,2.64-.53,4-.54,1.36,0,2.72,.19,4,.54,3.04-2.07,4.38-1.64,4.38-1.64,.86,2.2,.32,3.83,.16,4.24,1.01,1.12,1.64,2.55,1.64,4.3,0,6.14-3.74,7.5-7.3,7.89,.56,.48,1.08,1.46,1.08,2.96,0,2.14-.02,3.86-.02,4.39,0,.42,.28,.92,1.1,.75,6.4-2.09,10.98-8.09,10.98-15.16C32,7.17,24.84,0,16,0h0Z"/></svg>