<?xml version="1.0" encoding="UTF-8"?><svg id="Layer_1" xmlns="http://www.w3.org/2000/svg" viewBox="0 0 17.55 17.53"><defs><style>.cls-1{fill:#fff;}</style></defs><path class="cls-1" d="M16.63,2.28l.66-.69c.33-.35,.35-.83,.03-1.16l-.23-.24c-.3-.3-.79-.25-1.12,.07l-.68,.67,1.34,1.34ZM6.21,11.67l1.79-.76L15.99,2.91l-1.34-1.33-7.99,8-.79,1.73c-.09,.2,.13,.43,.33,.35Zm-3.32,5.86H13.13c1.68,0,2.66-.98,2.66-2.85V5.39l-1.72,1.72v7.42c0,.85-.46,1.28-1.05,1.28H2.99c-.82,0-1.27-.43-1.27-1.28V4.75c0-.85,.45-1.28,1.27-1.28h7.51l1.72-1.72H2.88C.99,1.74,0,2.72,0,4.6V14.68c0,1.88,.99,2.85,2.88,2.85Z"/></svg>