<?xml version="1.0" encoding="UTF-8"?><svg id="Layer_1" xmlns="http://www.w3.org/2000/svg" viewBox="0 0 20.07 19.78"><defs><style>.cls-1{fill:#fff;}</style></defs><path class="cls-1" d="M10.04,18.57c.21,0,.42-.02,.64-.04l.49,.93c.11,.23,.33,.34,.61,.31,.25-.04,.43-.24,.47-.49l.15-1.05c.41-.11,.82-.26,1.2-.43l.77,.69c.19,.18,.44,.22,.69,.09,.22-.13,.32-.37,.26-.62l-.22-1.03c.34-.25,.69-.52,.99-.83l.96,.4c.25,.11,.48,.04,.68-.18,.16-.18,.18-.44,.04-.67l-.56-.9c.25-.34,.45-.72,.63-1.12l1.05,.05c.26,.02,.48-.13,.56-.38,.09-.25,0-.49-.19-.65l-.83-.65c.11-.4,.19-.84,.23-1.27l.99-.32c.25-.09,.4-.28,.4-.54s-.15-.46-.4-.55l-.99-.32c-.04-.44-.12-.86-.23-1.27l.83-.65c.2-.16,.28-.4,.19-.64-.08-.25-.3-.39-.56-.38l-1.05,.04c-.18-.4-.39-.76-.63-1.12l.56-.89c.13-.21,.11-.47-.04-.66-.19-.22-.43-.27-.68-.18l-.96,.4c-.31-.3-.65-.58-.99-.82l.22-1.03c.05-.26-.04-.5-.26-.62-.25-.13-.5-.11-.69,.08l-.77,.69c-.39-.18-.8-.32-1.2-.44l-.15-1.03c-.04-.26-.22-.46-.47-.5-.27-.04-.5,.08-.61,.29l-.49,.95c-.22-.02-.43-.04-.64-.04-.23,0-.42,.02-.65,.04l-.49-.94c-.11-.22-.33-.33-.61-.3-.25,.04-.43,.24-.47,.5l-.15,1.03c-.4,.12-.82,.26-1.21,.44l-.76-.69c-.19-.19-.44-.21-.69-.09-.22,.12-.32,.36-.26,.63l.22,1.02c-.34,.24-.69,.52-.99,.82l-.96-.4c-.25-.1-.49-.04-.68,.18-.16,.18-.18,.45-.04,.65l.56,.9c-.25,.36-.45,.73-.63,1.12l-1.05-.04c-.26,0-.48,.13-.57,.38-.08,.25,0,.48,.2,.64l.83,.65c-.11,.41-.19,.83-.22,1.27l-1,.32c-.25,.09-.4,.28-.4,.55s.15,.46,.4,.54l1,.32c.03,.44,.11,.87,.22,1.27l-.83,.65c-.2,.16-.27,.4-.2,.65,.09,.25,.31,.4,.57,.38l1.05-.05c.18,.4,.39,.77,.62,1.12l-.55,.91c-.14,.21-.11,.47,.04,.66,.18,.22,.43,.28,.68,.18l.96-.4c.31,.31,.65,.58,.99,.83l-.22,1.03c-.04,.25,.04,.49,.26,.62,.25,.13,.49,.1,.69-.08l.76-.69c.4,.17,.8,.32,1.21,.43l.15,1.05c.04,.25,.21,.45,.47,.49,.27,.04,.49-.08,.61-.31l.49-.93c.22,.02,.42,.04,.65,.04Zm2.32-9.37c-.43-1.12-1.31-1.74-2.34-1.74-.15,0-.31,.02-.58,.08L7.06,3.45c.9-.41,1.91-.65,2.98-.65,3.71,0,6.64,2.79,6.98,6.4h-4.66Zm-9.33,.69c0-2.36,1.11-4.44,2.84-5.73l2.4,4.1c-.47,.52-.68,1.07-.68,1.65s.2,1.08,.68,1.61l-2.46,4.03c-1.7-1.29-2.78-3.34-2.78-5.67Zm5.94,.02c0-.59,.5-1.05,1.06-1.05s1.07,.47,1.07,1.05-.48,1.06-1.07,1.06c-.55,0-1.06-.48-1.06-1.06Zm1.07,7.06c-1.1,0-2.13-.24-3.05-.68l2.44-4c.26,.06,.44,.07,.59,.07,1.04,0,1.91-.62,2.34-1.78h4.66c-.33,3.6-3.27,6.39-6.98,6.39Z"/></svg>