<?xml version="1.0" encoding="UTF-8"?><svg id="Layer_1" xmlns="http://www.w3.org/2000/svg" viewBox="0 0 17.86 16.41"><defs><style>.cls-1{fill:#fff;}</style></defs><path class="cls-1" d="M2.88,16.41H14.98c1.9,0,2.88-.98,2.88-2.86V2.86c0-1.88-.98-2.86-2.88-2.86H2.88C.98,0,0,.98,0,2.86V13.55c0,1.88,.98,2.86,2.88,2.86Zm-.03-1.72c-.73,0-1.13-.39-1.13-1.15V5.41c0-.77,.4-1.15,1.13-1.15H14.99c.74,0,1.15,.38,1.15,1.15V13.54c0,.76-.41,1.15-1.15,1.15H2.86Zm1.51-7.26H13.5c.33,0,.56-.25,.56-.56s-.24-.54-.56-.54H4.37c-.33,0-.56,.24-.56,.54s.24,.56,.56,.56Zm0,2.6H13.5c.33,0,.56-.24,.56-.54s-.24-.56-.56-.56H4.37c-.33,0-.56,.25-.56,.56s.24,.54,.56,.54Zm0,2.6h5.77c.33,0,.56-.24,.56-.54s-.24-.57-.56-.57H4.37c-.33,0-.56,.25-.56,.57s.24,.54,.56,.54Z"/></svg>