<?xml version="1.0" encoding="UTF-8"?><svg id="Layer_1" xmlns="http://www.w3.org/2000/svg" viewBox="0 0 19.56 19.6"><defs><style>.cls-1{fill:#ffd20c;}</style></defs><path class="cls-1" d="M10.66,.89c0-.48-.4-.89-.88-.89s-.89,.4-.89,.89v1.79c0,.47,.4,.88,.89,.88s.88-.4,.88-.88V.89Zm3.52,3.28c-.33,.33-.33,.9,0,1.24,.33,.33,.91,.34,1.25,0l1.27-1.27c.34-.34,.33-.91,0-1.26-.33-.33-.91-.33-1.24,0l-1.28,1.28Zm-10.05,1.23c.33,.34,.91,.34,1.24,0,.34-.33,.34-.91,.02-1.24l-1.27-1.28c-.33-.33-.91-.34-1.24,0-.33,.34-.34,.91,0,1.25l1.27,1.27Zm5.65-.22c-2.52,0-4.61,2.09-4.61,4.62s2.09,4.62,4.61,4.62,4.61-2.09,4.61-4.62-2.09-4.62-4.61-4.62Zm8.9,5.5c.47,0,.88-.4,.88-.88s-.4-.88-.88-.88h-1.78c-.47,0-.88,.4-.88,.88s.4,.88,.88,.88h1.78ZM.88,8.92c-.47,0-.88,.4-.88,.88s.4,.88,.88,.88h1.78c.48,0,.89-.4,.89-.88s-.4-.88-.89-.88H.88Zm14.55,5.28c-.33-.33-.91-.33-1.25,0-.33,.34-.33,.91,0,1.25l1.27,1.27c.34,.33,.91,.33,1.25-.02s.33-.9,0-1.24l-1.27-1.27Zm-12.57,1.26c-.34,.34-.34,.91-.02,1.25,.34,.33,.91,.34,1.25,0l1.27-1.27c.34-.34,.34-.91,.02-1.24-.34-.34-.91-.34-1.26,0l-1.27,1.26Zm7.8,1.46c0-.47-.4-.88-.88-.88s-.89,.4-.89,.88v1.79c0,.47,.4,.89,.89,.89s.88-.41,.88-.89v-1.79Z"/></svg>