<?xml version="1.0" encoding="UTF-8"?><svg id="Layer_1" xmlns="http://www.w3.org/2000/svg" viewBox="0 0 18.04 18.86"><defs><style>.cls-1{fill:#fff;}</style></defs><path class="cls-1" d="M10.39,4.32c.11,0,.18-.07,.2-.18,.25-1.46,.25-1.49,1.77-1.78,.11-.02,.18-.09,.18-.2s-.07-.18-.18-.2c-1.52-.31-1.49-.33-1.77-1.78-.02-.11-.09-.18-.2-.18s-.18,.08-.2,.18c-.29,1.45-.25,1.48-1.78,1.78-.11,.02-.18,.09-.18,.2s.07,.18,.18,.2c1.53,.31,1.5,.33,1.78,1.78,.02,.11,.09,.18,.2,.18Zm4.22,6.06c.18,0,.31-.13,.33-.32,.28-2.34,.39-2.4,2.76-2.78,.21-.04,.34-.14,.34-.33,0-.18-.13-.3-.3-.33-2.4-.47-2.52-.45-2.8-2.78-.03-.19-.15-.32-.33-.32s-.31,.12-.33,.31c-.3,2.37-.38,2.44-2.79,2.79-.18,.02-.3,.15-.3,.33,0,.18,.12,.3,.29,.33,2.43,.47,2.5,.47,2.8,2.79,.03,.17,.16,.3,.33,.3Zm-6.77,8.48c3.26,0,5.96-1.7,7.15-4.53,.16-.38,.15-.69-.04-.88-.16-.15-.45-.18-.76-.05-.73,.3-1.6,.47-2.58,.47-3.94,0-6.52-2.5-6.52-6.35,0-1.02,.2-2.15,.53-2.81,.18-.36,.17-.67,0-.85-.17-.2-.48-.23-.89-.07C1.91,4.9,0,7.81,0,11.12c0,4.43,3.27,7.74,7.84,7.74Z"/></svg>