<?xml version="1.0" encoding="UTF-8"?><svg id="Layer_1" xmlns="http://www.w3.org/2000/svg" viewBox="0 0 16.71 20.32"><defs><style>.cls-1{fill:#fff;}</style></defs><path class="cls-1" d="M16.4,9.25l-1.13-.64,1-.58c.24-.14,.33-.42,.2-.65-.15-.25-.43-.3-.69-.15l-1.47,.84-2.5-1.41,2.52-1.42,1.47,.84c.25,.14,.54,.1,.69-.15,.12-.23,.03-.51-.21-.65l-.99-.58,1.12-.63c.29-.17,.39-.46,.23-.74-.15-.26-.47-.32-.72-.17l-1.13,.66v-1.14c0-.29-.19-.5-.46-.5-.3,0-.47,.21-.47,.53v1.68l-2.5,1.47,.03-2.92,1.46-.84c.26-.16,.36-.42,.22-.68-.13-.24-.42-.29-.67-.15l-.99,.57V.57c0-.32-.19-.57-.51-.57s-.51,.25-.51,.57V1.83l-.99-.57c-.24-.14-.53-.09-.67,.15-.13,.25-.04,.52,.23,.68l1.45,.84,.04,2.92-1.56-.93v1.12l1.08,.62-1.08,.62v1.12l1.56-.92-.04,2.9-1.27,.74c.11,.26,.33,.56,.54,.76l.72-.41v1.28c0,.33,.18,.57,.5,.57s.52-.25,.52-.57v-1.27l.98,.57c.25,.14,.53,.08,.66-.15,.15-.25,.04-.52-.22-.68l-1.45-.84-.03-2.9,2.48,1.47v1.68c0,.29,.18,.52,.47,.53,.26,0,.46-.23,.46-.5v-1.15l1.12,.66c.29,.17,.6,.11,.76-.15,.16-.28,.04-.59-.24-.74ZM4.81,20.32c2.65,0,4.79-2.13,4.79-4.77,0-1.36-.54-2.56-1.6-3.52-.18-.17-.23-.27-.23-.52l.02-7.72c0-1.95-1.2-3.26-2.98-3.26S1.82,1.84,1.82,3.79v7.72c0,.25-.03,.35-.22,.52-1.05,.96-1.6,2.16-1.6,3.52,0,2.65,2.14,4.77,4.81,4.77Zm0-1.5c-1.82,0-3.29-1.48-3.29-3.29,0-1.12,.52-2.09,1.45-2.71,.26-.18,.37-.34,.37-.7V3.85c0-1.1,.6-1.8,1.47-1.8s1.45,.7,1.45,1.8V12.12c0,.36,.11,.52,.38,.7,.92,.62,1.45,1.59,1.45,2.71,0,1.81-1.47,3.29-3.28,3.29Zm0-1.19c1.17,0,2.11-.94,2.11-2.11,0-.82-.46-1.49-1.13-1.85-.28-.16-.37-.26-.37-.69v-1.79c0-.43-.27-.7-.61-.7s-.6,.27-.6,.7v1.79c0,.42-.1,.53-.38,.69-.67,.36-1.12,1.03-1.12,1.85,0,1.17,.94,2.11,2.1,2.11Z"/></svg>