<?xml version="1.0" encoding="UTF-8"?><svg id="Layer_1" xmlns="http://www.w3.org/2000/svg" viewBox="0 0 20.36 20.58"><defs><style>.cls-1{fill:#fff;}.cls-2{fill:#7db7e1;}</style></defs><path class="cls-1" d="M4.25,13.57H15.21c2.94,0,5.15-2.23,5.15-5.02s-2.31-4.98-5.33-4.98c-1.08-2.13-3.09-3.57-5.76-3.57C5.91,0,3.17,2.59,2.85,5.87c-1.63,.48-2.85,1.89-2.85,3.79,0,2.18,1.59,3.91,4.25,3.91Z"/><path class="cls-2" d="M11.52,17.8l1.13-1.96c.17-.29,.08-.62-.2-.79-.29-.17-.62-.07-.78,.22l-1.14,1.98c-.16,.27-.09,.61,.21,.77,.28,.17,.62,.06,.78-.22Z"/><path class="cls-2" d="M4.53,17.81l1.13-1.96c.17-.29,.08-.62-.2-.79-.29-.17-.61-.07-.78,.22l-1.14,1.98c-.16,.27-.08,.61,.21,.77,.28,.16,.62,.06,.78-.22Z"/><path class="cls-2" d="M14.27,20.28l1.13-1.97c.18-.28,.09-.62-.2-.79-.28-.16-.61-.07-.78,.23l-1.13,1.98c-.17,.27-.09,.61,.2,.77,.28,.16,.62,.05,.78-.22Z"/><path class="cls-2" d="M7.29,20.28l1.13-1.96c.17-.28,.08-.62-.2-.79-.29-.17-.62-.07-.78,.23l-1.14,1.97c-.16,.27-.09,.62,.21,.78,.28,.16,.62,.05,.78-.23Z"/></svg>