<?xml version="1.0" encoding="UTF-8"?><svg id="Layer_1" xmlns="http://www.w3.org/2000/svg" viewBox="0 0 20.29 21.15"><defs><style>.cls-1{fill:#fff;}.cls-2{fill:#ffd20c;}</style></defs><path class="cls-2" d="M10.14,3.73c.43,0,.78-.37,.78-.85V.83c0-.48-.35-.83-.78-.83s-.78,.35-.78,.83V2.87c0,.48,.35,.86,.78,.85Z"/><path class="cls-2" d="M14.68,5.6c.31,.3,.81,.3,1.15-.04l1.44-1.44c.35-.34,.34-.83,.04-1.14-.29-.31-.79-.31-1.14,.04l-1.44,1.44c-.34,.34-.35,.85-.04,1.15Z"/><path class="cls-2" d="M5.61,5.6c.29-.3,.29-.81-.04-1.15l-1.45-1.44c-.34-.34-.83-.33-1.14-.04-.31,.3-.31,.8,.04,1.14l1.45,1.44c.33,.34,.85,.35,1.15,.04Z"/><path class="cls-2" d="M14.92,10.12c0-2.61-2.16-4.78-4.77-4.78s-4.77,2.17-4.77,4.78c0,.58,.12,1.14,.33,1.65H14.58c.2-.51,.33-1.07,.33-1.65Z"/><path class="cls-2" d="M.84,10.66H2.88c.48,0,.85-.35,.84-.78,0-.43-.36-.78-.84-.78H.84c-.48,0-.84,.35-.84,.78s.36,.78,.84,.78Z"/><path class="cls-2" d="M17.4,10.66h2.04c.48,0,.84-.35,.84-.78s-.36-.78-.84-.78h-2.04c-.47,0-.85,.35-.84,.78,0,.43,.37,.78,.84,.78Z"/><path class="cls-1" d="M1.25,14.05H19.01c.33,0,.6-.25,.6-.59s-.26-.59-.6-.59H1.25c-.33,0-.6,.25-.6,.59s.26,.59,.6,.59Z"/><path class="cls-1" d="M1.99,16.89c.25,0,.47-.2,.47-.47,0-.25-.21-.47-.47-.47s-.47,.21-.47,.47c0,.27,.21,.47,.47,.47Z"/><path class="cls-1" d="M5.7,16.89c.25,0,.47-.2,.47-.47,0-.25-.21-.47-.47-.47s-.47,.21-.47,.47c0,.27,.21,.47,.47,.47Z"/><path class="cls-1" d="M9.41,16.89c.25,0,.47-.2,.47-.47,0-.25-.21-.47-.47-.47s-.47,.21-.47,.47c0,.27,.21,.47,.47,.47Z"/><path class="cls-1" d="M13.13,16.89c.25,0,.47-.2,.47-.47,0-.25-.21-.47-.47-.47s-.47,.21-.47,.47c0,.27,.21,.47,.47,.47Z"/><path class="cls-1" d="M16.84,16.89c.25,0,.47-.2,.47-.47,0-.25-.21-.47-.47-.47s-.47,.21-.47,.47c0,.27,.21,.47,.47,.47Z"/><path class="cls-1" d="M.87,19.03c.25,0,.47-.21,.47-.47s-.21-.47-.47-.47c-.27,0-.47,.21-.47,.47s.2,.47,.47,.47Z"/><path class="cls-1" d="M4.58,19.03c.25,0,.47-.21,.47-.47s-.21-.47-.47-.47-.47,.21-.47,.47,.21,.47,.47,.47Z"/><path class="cls-1" d="M8.3,19.03c.25,0,.47-.21,.47-.47s-.21-.47-.47-.47c-.27,0-.47,.21-.47,.47s.2,.47,.47,.47Z"/><path class="cls-1" d="M12.01,19.03c.25,0,.47-.21,.47-.47s-.21-.47-.47-.47-.47,.21-.47,.47,.21,.47,.47,.47Z"/><path class="cls-1" d="M15.72,19.03c.25,0,.47-.21,.47-.47s-.21-.47-.47-.47c-.27,0-.47,.21-.47,.47s.2,.47,.47,.47Z"/><path class="cls-1" d="M19.43,19.03c.25,0,.47-.21,.47-.47s-.21-.47-.47-.47-.47,.21-.47,.47,.21,.47,.47,.47Z"/><path class="cls-1" d="M3.46,21.15c.25,0,.47-.2,.47-.47,0-.25-.21-.47-.47-.47-.27,0-.47,.21-.47,.47,0,.27,.2,.47,.47,.47Z"/><path class="cls-1" d="M7.17,21.15c.25,0,.47-.2,.47-.47,0-.25-.21-.47-.47-.47s-.47,.21-.47,.47c0,.27,.21,.47,.47,.47Z"/><path class="cls-1" d="M10.89,21.15c.25,0,.47-.2,.47-.47,0-.25-.21-.47-.47-.47-.27,0-.48,.21-.48,.47,0,.27,.21,.47,.48,.47Z"/><path class="cls-1" d="M14.6,21.15c.25,0,.47-.2,.47-.47,0-.25-.21-.47-.47-.47s-.47,.21-.47,.47c0,.27,.21,.47,.47,.47Z"/><path class="cls-1" d="M18.32,21.15c.25,0,.46-.2,.46-.47,0-.25-.2-.47-.46-.47-.27,0-.48,.21-.48,.47,0,.27,.21,.47,.48,.47Z"/></svg>