<?xml version="1.0" encoding="UTF-8"?><svg id="Layer_1" xmlns="http://www.w3.org/2000/svg" viewBox="0 0 23.39 15.22"><defs><style>.cls-1{fill:#fff;}</style></defs><path class="cls-1" d="M19.04,10.52c2.72-.54,4.35-2.77,4.35-4.24,0-.36-.16-.62-.45-.62-.45,0-1.1,.55-2.33,.55-2.13,0-3.46-1.28-3.46-3.23,0-1.2,.6-2.06,.6-2.54,0-.28-.19-.47-.54-.46-1.6,.06-3.73,1.85-4.22,4.24,.3,.28,.58,.65,.81,1.13,2.9,.2,5.13,2.41,5.25,5.15ZM3.7,15.22H13.45c2.51,0,4.45-1.92,4.45-4.39s-2-4.36-4.67-4.37c-1-1.91-2.8-3.13-5.08-3.13-2.92,0-5.38,2.24-5.64,5.18-1.53,.44-2.5,1.73-2.5,3.31,0,2.02,1.5,3.4,3.7,3.4Z"/></svg>