<?xml version="1.0" encoding="UTF-8"?><svg id="Layer_1" xmlns="http://www.w3.org/2000/svg" viewBox="0 0 25.87 18.04"><defs><style>.cls-1{fill:#fff;}.cls-2{fill:#ffd20c;}</style></defs><path class="cls-2" d="M16.69,3.41c.43,0,.79-.37,.79-.8V.79c0-.44-.36-.79-.79-.79s-.8,.35-.8,.79v1.82c0,.43,.36,.8,.8,.8Z"/><path class="cls-2" d="M11.47,5.11c.32,.32,.83,.31,1.13,0,.29-.31,.3-.81,0-1.12l-1.29-1.3c-.31-.31-.82-.31-1.12,0-.31,.31-.31,.81,0,1.12l1.28,1.29Z"/><path class="cls-2" d="M20.78,5.12c.3,.31,.82,.31,1.13,0l1.28-1.28c.31-.31,.31-.82,0-1.12-.31-.31-.81-.31-1.12,0l-1.3,1.3c-.31,.31-.3,.81,0,1.12Z"/><path class="cls-2" d="M19.03,12.96c1.27-.86,2.06-2.21,2.06-3.75,0-2.44-1.96-4.4-4.39-4.4-1.61,0-3.01,.86-3.74,2.12,.39,.39,.7,.81,.98,1.33,2.86,.22,4.81,2.05,5.1,4.71Z"/><path class="cls-1" d="M3.71,18.04H13.46c2.52,0,4.46-1.92,4.46-4.4s-2-4.38-4.68-4.39c-.98-1.87-2.78-3.12-5.09-3.12-2.93,0-5.39,2.25-5.66,5.19-1.49,.43-2.5,1.71-2.5,3.32,0,2,1.49,3.41,3.71,3.41Z"/><path class="cls-2" d="M23.26,9.99h1.82c.44,0,.79-.35,.79-.79s-.35-.79-.79-.79h-1.82c-.43,0-.8,.35-.8,.79s.37,.79,.8,.79Z"/><path class="cls-2" d="M22.08,15.71c.31,.31,.81,.3,1.12,0,.31-.31,.3-.81,0-1.12l-1.29-1.29c-.31-.3-.81-.31-1.12,0-.31,.31-.3,.82,0,1.12l1.3,1.29Z"/></svg>