<?xml version="1.0" encoding="UTF-8"?><svg id="Layer_1" xmlns="http://www.w3.org/2000/svg" viewBox="0 0 20.36 20.79"><defs><style>.cls-1{fill:#fff;}.cls-2{fill:#7db7e1;}</style></defs><path class="cls-1" d="M4.25,13.57H15.21c2.94,0,5.15-2.23,5.15-5.02s-2.31-4.98-5.33-4.98c-1.08-2.13-3.09-3.57-5.76-3.57C5.91,0,3.17,2.59,2.85,5.87c-1.63,.48-2.85,1.89-2.85,3.79,0,2.18,1.59,3.91,4.25,3.91Z"/><path class="cls-2" d="M5.46,16.74l.55-.96c.16-.28,.08-.62-.2-.79-.29-.17-.62-.06-.78,.22l-.56,.98c-.15,.27-.08,.61,.21,.77,.28,.17,.62,.06,.78-.22Z"/><path class="cls-2" d="M9.3,18.09l1.32-2.29c.17-.29,.09-.62-.2-.79-.28-.17-.62-.07-.78,.22l-1.33,2.32c-.16,.26-.09,.61,.2,.77,.29,.16,.63,.05,.79-.23Z"/><path class="cls-2" d="M14.67,16.78l.55-.97c.16-.27,.08-.62-.2-.78-.29-.17-.62-.07-.78,.22l-.56,.98c-.15,.27-.08,.61,.21,.77,.28,.16,.62,.06,.78-.22Z"/><path class="cls-2" d="M3.81,19.45c.54,0,.98-.45,.98-.99s-.45-.98-.98-.98-.99,.45-.99,.98,.45,.99,.99,.99Z"/><path class="cls-2" d="M13.03,19.49c.54,0,.98-.45,.98-1s-.45-.98-.98-.98-.99,.45-.99,.98c0,.55,.45,1,.99,1Z"/><path class="cls-2" d="M7.65,20.79c.54,0,.99-.45,.99-.99s-.45-.98-.99-.98-.98,.45-.98,.98,.45,.99,.98,.99Z"/></svg>