<?xml version="1.0" encoding="UTF-8"?><svg id="Layer_1" xmlns="http://www.w3.org/2000/svg" viewBox="0 0 20.29 20.81"><defs><style>.cls-1{fill:#fff;}.cls-2{fill:#ffd20c;}</style></defs><path class="cls-2" d="M10.14,3.73c.43,0,.78-.37,.78-.84V.84c0-.48-.35-.84-.78-.84s-.78,.36-.78,.84V2.88c0,.47,.35,.85,.78,.84Z"/><path class="cls-2" d="M14.68,5.61c.31,.29,.81,.29,1.15-.05l1.44-1.43c.35-.35,.34-.84,.04-1.15-.29-.31-.79-.31-1.14,.04l-1.44,1.44c-.34,.33-.35,.85-.04,1.15Z"/><path class="cls-2" d="M5.61,5.61c.29-.31,.29-.82-.04-1.15l-1.45-1.44c-.34-.35-.83-.34-1.14-.04-.31,.3-.31,.8,.04,1.15l1.45,1.43c.33,.34,.85,.35,1.15,.05Z"/><path class="cls-2" d="M14.92,10.12c0-2.61-2.16-4.78-4.77-4.78s-4.77,2.17-4.77,4.78c0,.58,.12,1.14,.33,1.65H14.58c.2-.51,.33-1.07,.33-1.65Z"/><path class="cls-2" d="M.84,10.66H2.88c.48,0,.85-.35,.84-.78,0-.43-.36-.78-.84-.78H.84c-.48,0-.84,.35-.84,.78s.36,.78,.84,.78Z"/><path class="cls-2" d="M17.4,10.66h2.04c.48,0,.84-.35,.84-.78s-.36-.77-.84-.78h-2.04c-.47,0-.85,.35-.84,.78,0,.43,.37,.78,.84,.78Z"/><path class="cls-1" d="M1.92,14.05H19.68c.34,0,.61-.25,.61-.59s-.26-.59-.61-.59H1.92c-.33,0-.6,.25-.6,.59s.26,.59,.6,.59Z"/><path class="cls-1" d="M.6,17.44H18.36c.33,0,.6-.25,.6-.6s-.26-.59-.6-.59H.6c-.33,0-.6,.25-.6,.59s.26,.6,.6,.6Z"/><path class="cls-1" d="M1.92,20.81H19.68c.34,0,.61-.25,.61-.6s-.26-.59-.61-.59H1.92c-.33,0-.6,.25-.6,.59s.26,.6,.6,.6Z"/></svg>