<?xml version="1.0" encoding="UTF-8"?><svg id="Layer_1" xmlns="http://www.w3.org/2000/svg" viewBox="0 0 18.34 22.99"><defs><style>.cls-1{fill:#fff;}.cls-2{fill:#ffd20c;}</style></defs><path class="cls-1" d="M7.77,14.16l.02-7.72c0-1.95-1.2-3.26-2.98-3.26s-2.99,1.31-2.99,3.26v7.72c0,.25-.03,.35-.22,.52-1.05,.96-1.6,2.16-1.6,3.52,0,2.65,2.14,4.78,4.81,4.78s4.79-2.14,4.79-4.78c0-1.36-.54-2.56-1.6-3.52-.18-.17-.23-.26-.23-.52Zm-2.96,7.32c-1.82,0-3.29-1.49-3.29-3.3,0-1.12,.52-2.09,1.45-2.71,.26-.18,.37-.34,.37-.7V6.51c0-1.1,.6-1.8,1.47-1.8s1.45,.7,1.45,1.8V14.78c0,.36,.11,.53,.38,.7,.92,.62,1.45,1.59,1.45,2.71,0,1.81-1.47,3.3-3.28,3.3Z"/><path class="cls-1" d="M5.77,16.33c-.28-.16-.37-.26-.37-.69V7.21c0-.43-.27-.7-.61-.7s-.6,.27-.6,.7V15.65c0,.42-.1,.53-.38,.69-.67,.36-1.12,1.04-1.12,1.85,0,1.18,.94,2.12,2.1,2.12s2.11-.95,2.11-2.12c0-.81-.46-1.49-1.13-1.85Z"/><path class="cls-2" d="M9.16,3.42c.44,0,.8-.37,.8-.8V.8c0-.44-.36-.8-.8-.8s-.79,.36-.79,.8v1.82c0,.43,.36,.8,.79,.8Z"/><path class="cls-2" d="M13.25,5.12c.3,.3,.82,.31,1.12,0l1.28-1.29c.32-.31,.31-.82,0-1.12-.31-.31-.81-.31-1.12,0l-1.3,1.3c-.31,.3-.3,.81,0,1.12Z"/><path class="cls-2" d="M9.19,13.65c2.45,0,4.4-1.99,4.4-4.45s-1.98-4.44-4.43-4.44c-.2,0-.39,.03-.58,.06,.18,.49,.28,1.04,.28,1.63l-.02,7.16c.11,.03,.23,.04,.34,.04Z"/><path class="cls-2" d="M15.73,9.99h1.82c.43,0,.79-.35,.79-.79s-.36-.79-.79-.79h-1.82c-.43,0-.8,.36-.8,.79s.37,.79,.8,.79Z"/><path class="cls-2" d="M14.55,15.71c.31,.31,.81,.31,1.11,0,.31-.31,.31-.81,0-1.12l-1.29-1.29c-.31-.3-.82-.31-1.12,0-.31,.31-.31,.82,0,1.12l1.3,1.29Z"/></svg>