<?xml version="1.0" encoding="UTF-8"?><svg id="Layer_1" xmlns="http://www.w3.org/2000/svg" viewBox="0 0 20.36 19.79"><defs><style>.cls-1{fill:#fff;}</style></defs><path class="cls-1" d="M4.25,13.57H15.21c2.94,0,5.15-2.23,5.15-5.02s-2.31-4.98-5.33-4.98c-1.08-2.13-3.09-3.57-5.76-3.57C5.91,0,3.17,2.59,2.85,5.87c-1.63,.48-2.85,1.89-2.85,3.79,0,2.18,1.59,3.91,4.25,3.91Zm11.68,2.05H4.6c-.34,0-.61,.25-.61,.6s.26,.59,.61,.59H15.93c.33,0,.6-.25,.6-.59s-.26-.6-.6-.6Zm0,2.99H4.6c-.34,0-.61,.25-.61,.59s.26,.6,.61,.6H15.93c.33,0,.6-.25,.6-.6s-.26-.59-.6-.59Z"/></svg>