<?xml version="1.0" encoding="UTF-8"?><svg id="Layer_1" xmlns="http://www.w3.org/2000/svg" viewBox="0 0 20.36 21.91"><defs><style>.cls-1{fill:#fff;}.cls-2{fill:#7db7e1;}</style></defs><path class="cls-1" d="M4.25,13.57H15.21c2.94,0,5.15-2.23,5.15-5.02s-2.31-4.98-5.33-4.98c-1.08-2.13-3.09-3.57-5.76-3.57C5.91,0,3.17,2.59,2.85,5.87c-1.63,.48-2.85,1.89-2.85,3.79,0,2.18,1.59,3.91,4.25,3.91Z"/><path class="cls-2" d="M5.46,16.74l.55-.96c.16-.28,.08-.62-.2-.79-.29-.17-.62-.06-.78,.22l-.56,.98c-.15,.27-.08,.61,.21,.77,.28,.17,.62,.06,.78-.22Z"/><path class="cls-2" d="M9.3,18.09l1.32-2.29c.17-.29,.09-.62-.2-.79-.28-.17-.62-.07-.78,.22l-1.33,2.32c-.16,.26-.09,.61,.2,.77,.29,.16,.63,.05,.79-.23Z"/><path class="cls-2" d="M14.67,16.78l.55-.97c.16-.27,.08-.62-.2-.78-.29-.17-.62-.07-.78,.22l-.56,.98c-.15,.27-.08,.61,.21,.77,.28,.16,.62,.06,.78-.22Z"/><path class="cls-1" d="M3.7,20.56c.18,0,.3-.16,.28-.33l-.07-.83,.69,.48c.14,.11,.34,.07,.44-.08,.09-.15,.03-.36-.16-.44l-.75-.35,.76-.36c.18-.09,.24-.28,.16-.43-.09-.16-.32-.18-.46-.08l-.69,.48,.08-.83c.03-.18-.11-.34-.29-.34s-.32,.16-.3,.34l.07,.83-.69-.49c-.14-.1-.34-.08-.43,.09-.09,.15-.04,.34,.14,.43l.76,.36-.76,.35c-.18,.08-.24,.28-.15,.44,.09,.16,.3,.18,.44,.08l.69-.48-.06,.83c-.02,.18,.1,.33,.29,.33Z"/><path class="cls-1" d="M12.95,20.59c.18,0,.3-.16,.29-.34l-.08-.83,.69,.48c.14,.1,.34,.07,.44-.08,.09-.15,.03-.36-.16-.44l-.75-.35,.76-.37c.18-.08,.23-.27,.15-.42-.09-.16-.31-.18-.45-.09l-.69,.49,.08-.83c.03-.19-.11-.34-.29-.34s-.31,.15-.3,.34l.07,.83-.69-.49c-.14-.1-.33-.08-.43,.09-.09,.15-.04,.34,.15,.42l.76,.36-.76,.36c-.18,.08-.23,.28-.15,.44,.09,.16,.3,.18,.44,.08l.69-.48-.06,.83c-.02,.18,.1,.34,.29,.34Z"/><path class="cls-1" d="M7.94,21.91c.18,0,.3-.17,.28-.34l-.07-.83,.69,.48c.14,.11,.35,.07,.44-.08,.1-.15,.04-.36-.15-.44l-.76-.35,.76-.36c.18-.09,.23-.28,.15-.43-.09-.16-.31-.18-.45-.08l-.69,.48,.08-.83c.02-.18-.11-.34-.29-.34-.19,0-.32,.16-.3,.34l.07,.83-.69-.48c-.14-.11-.34-.08-.43,.08-.09,.15-.04,.34,.14,.43l.76,.36-.76,.35c-.18,.09-.24,.29-.15,.44,.09,.16,.3,.18,.44,.08l.69-.47-.06,.83c-.02,.18,.1,.34,.29,.34Z"/></svg>