<?xml version="1.0" encoding="UTF-8"?><svg id="Layer_1" xmlns="http://www.w3.org/2000/svg" viewBox="0 0 21.34 15.78"><defs><style>.cls-1{fill:#fff;}</style></defs><path class="cls-1" d="M0,7.59c0,1.82,1.24,3.32,3.18,3.69-.1,.32-.14,.64-.14,.99,0,2.01,1.52,3.5,3.6,3.5h10.62c2.43,0,4.08-1.68,4.08-3.83,0-1.76-1.18-3.24-2.86-3.73-.22-1.84-1.57-3.33-3.32-3.75-.29-1.63-1.67-2.84-3.34-2.84-.42,0-.82,.04-1.14,.14-1.02-1.21-2.14-1.77-3.49-1.77C4.97,0,3.1,1.7,2.83,3.88c-1.68,.47-2.83,1.98-2.83,3.71Zm1.59,0c0-1.17,.89-2.14,2.02-2.29,.53-.07,.74-.3,.75-.85,0-1.58,1.27-2.86,2.83-2.86,1.05,0,1.88,.54,2.49,1.48,.23,.35,.55,.45,1.01,.3,.25-.07,.62-.16,.98-.16,.81,0,1.5,.48,1.79,1.2-1.1,.18-2.08,.77-2.76,1.68-.31-.06-.65-.11-.98-.11-1.72,0-3.19,1.2-3.55,2.84-.82,.11-1.53,.46-2.07,.98-1.52-.08-2.5-.98-2.5-2.2Zm5.05,6.59c-1.2,0-2.02-.77-2.02-1.92s.87-1.91,2.05-1.97c.6-.04,.83-.21,.9-.73,.14-1.2,1.02-2.02,2.2-2.02,.35,0,.56,.05,.92,.18,.49,.18,.76,.11,.97-.28,.48-.91,1.42-1.49,2.53-1.5,1.51,0,2.72,1.2,2.78,2.81,.02,.6,.19,.81,.77,.89,1.21,.19,2.01,1.16,2.01,2.3,0,1.34-1,2.24-2.49,2.24H6.64Z"/></svg>