<?xml version="1.0" encoding="UTF-8"?><svg id="Layer_1" xmlns="http://www.w3.org/2000/svg" viewBox="0 0 20.36 21.37"><defs><style>.cls-1{fill:#fff;}</style></defs><path class="cls-1" d="M4.25,13.57H15.21c2.94,0,5.15-2.23,5.15-5.02s-2.31-4.98-5.33-4.98c-1.08-2.13-3.09-3.57-5.76-3.57C5.91,0,3.17,2.59,2.85,5.87c-1.63,.48-2.85,1.89-2.85,3.79,0,2.18,1.59,3.91,4.25,3.91Zm.43,4.5c.18,0,.3-.16,.28-.33l-.07-.84,.69,.48c.14,.11,.34,.07,.43-.08,.1-.15,.04-.36-.15-.44l-.76-.35,.76-.36c.18-.09,.23-.28,.16-.43-.09-.16-.32-.18-.46-.08l-.69,.48,.08-.84c.03-.18-.11-.34-.29-.34s-.32,.16-.3,.34l.07,.84-.69-.49c-.14-.1-.34-.08-.43,.09-.09,.15-.04,.34,.14,.43l.76,.36-.76,.35c-.18,.09-.24,.28-.15,.44,.09,.16,.3,.18,.44,.08l.69-.48-.06,.84c-.02,.18,.1,.33,.29,.33Zm4.87,0c.18,0,.3-.16,.28-.33l-.07-.84,.69,.48c.14,.11,.34,.07,.43-.08,.1-.15,.04-.36-.15-.44l-.76-.35,.76-.36c.18-.09,.23-.28,.15-.43-.08-.16-.31-.18-.45-.08l-.69,.48,.08-.84c.03-.18-.11-.34-.29-.34-.19,0-.32,.16-.3,.34l.07,.84-.69-.49c-.14-.1-.34-.08-.43,.09-.09,.15-.04,.34,.14,.43l.76,.36-.76,.35c-.18,.09-.24,.28-.15,.44,.09,.16,.3,.18,.44,.08l.69-.48-.06,.84c-.02,.18,.1,.33,.29,.33Zm4.87,0c.18,0,.3-.16,.28-.33l-.07-.84,.69,.48c.13,.11,.34,.07,.43-.08,.1-.15,.04-.36-.15-.44l-.76-.35,.76-.36c.18-.09,.23-.28,.15-.43-.08-.16-.31-.18-.45-.08l-.69,.48,.08-.84c.03-.18-.11-.34-.29-.34-.19,0-.32,.16-.3,.34l.07,.84-.69-.49c-.14-.1-.34-.08-.43,.09-.09,.15-.04,.34,.14,.43l.76,.36-.76,.35c-.18,.09-.24,.28-.15,.44,.09,.16,.3,.18,.44,.08l.69-.48-.06,.84c-.02,.18,.1,.33,.29,.33Zm-11.65,3.3c.18,0,.3-.17,.28-.34l-.07-.83,.69,.48c.14,.11,.34,.07,.43-.08,.1-.15,.04-.36-.15-.44l-.76-.35,.76-.36c.18-.08,.23-.28,.16-.43-.09-.15-.32-.18-.46-.08l-.69,.48,.08-.84c.03-.18-.11-.34-.29-.34s-.32,.16-.3,.34l.07,.84-.69-.48c-.14-.11-.34-.08-.43,.08-.09,.15-.04,.34,.14,.43l.76,.36-.76,.35c-.18,.09-.24,.29-.15,.44,.09,.16,.3,.18,.44,.08l.69-.47-.06,.83c-.02,.18,.1,.34,.29,.34Zm4.87,0c.18,0,.3-.17,.28-.34l-.07-.83,.69,.48c.14,.11,.34,.07,.43-.08,.1-.15,.04-.36-.15-.44l-.76-.35,.76-.36c.18-.08,.23-.28,.15-.43-.08-.15-.31-.18-.45-.08l-.69,.48,.08-.84c.03-.18-.11-.34-.29-.34s-.32,.16-.3,.34l.07,.84-.69-.48c-.14-.11-.34-.08-.43,.08-.09,.15-.04,.34,.14,.43l.76,.36-.76,.35c-.18,.09-.24,.29-.15,.44,.09,.16,.3,.18,.44,.08l.69-.47-.06,.83c-.02,.18,.1,.34,.29,.34Zm4.87,0c.18,0,.3-.17,.28-.34l-.07-.83,.69,.48c.13,.11,.34,.07,.43-.08,.1-.15,.04-.36-.15-.44l-.76-.35,.76-.36c.18-.08,.23-.28,.15-.43s-.31-.18-.45-.08l-.69,.48,.08-.84c.03-.18-.11-.34-.29-.34-.19,0-.32,.16-.3,.34l.07,.84-.69-.48c-.14-.11-.34-.08-.43,.08-.09,.15-.04,.34,.14,.43l.76,.36-.76,.35c-.18,.09-.24,.29-.15,.44,.09,.16,.3,.18,.44,.08l.69-.47-.06,.83c-.02,.18,.1,.34,.29,.34Z"/></svg>