<?xml version="1.0" encoding="UTF-8"?><svg id="Layer_1" xmlns="http://www.w3.org/2000/svg" viewBox="0 0 20.36 21.43"><defs><style>.cls-1{fill:#fff;}</style></defs><path class="cls-1" d="M4.25,13.57H15.21c2.94,0,5.15-2.23,5.15-5.02s-2.31-4.98-5.33-4.98c-1.08-2.13-3.09-3.57-5.76-3.57C5.91,0,3.17,2.59,2.85,5.87c-1.63,.48-2.85,1.89-2.85,3.79,0,2.18,1.59,3.91,4.25,3.91Zm8.17,3.25h-1.86l.83-1.61c.11-.19,.03-.34-.17-.34h-2.07c-.25,0-.34,.09-.42,.27l-1.22,2.78c-.09,.22,0,.35,.24,.35h1.56l-1.2,2.89c-.04,.11-.02,.22,.06,.25,.08,.03,.18,0,.27-.09l4.1-4.07c.19-.19,.12-.44-.13-.44Z"/></svg>