<?xml version="1.0" encoding="UTF-8"?><svg id="Layer_1" xmlns="http://www.w3.org/2000/svg" viewBox="0 0 17.08 19.83"><defs><style>.cls-1{fill:#fff;}</style></defs><path class="cls-1" d="M8.4,8.2c5.48,0,8.67-1.38,8.67-3.3,0-1.76-2.46-2.83-6.13-2.83-2.65,0-4.75,.48-6.36,1.21-.47,.21-.58,.69-.41,1.01,.18,.38,.64,.5,1.07,.33,1.42-.57,3.2-1.13,5.62-1.13,2.86,0,4.64,.65,4.64,1.39,0,.89-2.86,1.83-7.17,1.83S1.56,5.85,1.56,4.21c0-1.02,.94-2.02,3.43-2.79,.48-.15,.69-.54,.54-.95-.13-.4-.49-.56-1.04-.4C1.47,.93,0,2.55,0,4.24c0,2.57,2.91,3.96,8.4,3.96Zm.26,2.98c2.8,0,5.38-.46,7.2-1.19,.39-.15,.56-.54,.39-.9-.18-.33-.54-.4-.98-.25-1.65,.62-4.05,1.04-6.61,1.04-1.91,0-4.09-.24-5.8-.74-.44-.13-.81,0-.91,.38-.11,.38,.09,.73,.54,.85,1.85,.54,4.17,.8,6.17,.8Zm.62,2.94c2.33-.02,4.52-.35,6.53-1.02,.5-.17,.61-.57,.48-.9-.13-.34-.47-.47-.97-.31-1.98,.62-3.95,.93-6.06,.93-.9,0-1.84-.06-2.56-.16-.47-.06-.76,.14-.83,.48-.07,.36,.12,.7,.62,.79,.69,.11,1.65,.18,2.78,.18Zm-.84,2.79c1.63,.18,3.64,.13,5.28-.31,.44-.11,.62-.5,.51-.85-.11-.37-.47-.51-.92-.4-1.42,.36-3.1,.47-4.66,.3-.47-.04-.79,.18-.84,.54-.04,.35,.13,.68,.62,.73Zm-.61,2.87c.58,.07,1.23,.06,1.84,0,.43-.05,.66-.33,.62-.7-.04-.33-.31-.58-.77-.52-.5,.06-1.07,.06-1.56,0-.44-.05-.72,.19-.76,.52-.04,.35,.18,.66,.63,.71Z"/></svg>