<?xml version="1.0" encoding="UTF-8"?><svg id="Layer_1" xmlns="http://www.w3.org/2000/svg" viewBox="0 0 11.47 18.81"><defs><style>.cls-1{fill:#fff;}</style></defs><path class="cls-1" d="M0,18.06c0,.41,.33,.75,.76,.75,5.34,0,9.59-3.74,9.59-9.4,0-2.53-2.09-4.62-4.61-4.62-.84,0-1.63,.26-2.27,.7,1.34-2.5,4.04-3.98,7.23-3.98,.44,0,.76-.34,.76-.76s-.33-.75-.76-.75C5.37,0,1.12,3.74,1.12,9.4c0,2.53,2.09,4.62,4.61,4.62,.84,0,1.63-.26,2.26-.7-1.34,2.5-4.05,3.98-7.23,3.98-.44,0-.76,.33-.76,.76ZM2.64,9.4c0-1.7,1.41-3.1,3.1-3.1s3.1,1.41,3.1,3.1-1.42,3.1-3.1,3.1-3.1-1.41-3.1-3.1Zm1.8,0c0,.7,.58,1.28,1.29,1.28s1.28-.59,1.28-1.28-.58-1.28-1.28-1.28-1.29,.57-1.29,1.28Z"/></svg>