<?xml version="1.0" encoding="UTF-8"?><svg id="Layer_1" xmlns="http://www.w3.org/2000/svg" viewBox="0 0 18.24 15.91"><defs><style>.cls-1{fill:#fff;}</style></defs><path class="cls-1" d="M.9,5.41c1.27-.4,2.58-.6,3.82-.6,1.61,0,2.79,.25,4.32,.25,1.61,0,2.64-1.1,2.64-2.54s-1.12-2.53-2.52-2.53c-1.01,0-1.92,.62-2.3,1.48-.17,.33-.1,.7,.24,.89,.32,.17,.71,.06,.92-.33,.18-.41,.63-.74,1.14-.74,.69,0,1.23,.47,1.23,1.24s-.53,1.25-1.34,1.25c-1.44,0-2.65-.25-4.32-.25-1.43,0-2.89,.25-4.22,.65-.4,.12-.57,.47-.47,.83,.1,.34,.43,.54,.87,.41Zm13.78,4.21c2.08,0,3.56-1.34,3.56-3.19s-1.4-3.17-3.16-3.17c-1.56,0-2.78,1.07-3.03,2.5-.08,.4,.12,.74,.47,.81,.36,.08,.69-.13,.8-.58,.16-.85,.9-1.44,1.76-1.44,1.05,0,1.87,.77,1.87,1.88s-.89,1.9-2.27,1.9c-2.68,0-5.59-1.53-9.11-1.53-1.82,0-3.48,.29-5.06,.84-.4,.14-.57,.48-.47,.83,.11,.35,.45,.55,.87,.41,1.45-.54,2.94-.77,4.67-.77,3.49,0,6.12,1.52,9.11,1.52Zm-5.62,6.28c1.4,0,2.48-1.05,2.48-2.51,0-2.13-2.17-3.3-6.13-3.3-1.63,0-3.4,.31-4.9,.83-.4,.13-.57,.48-.47,.83,.11,.35,.45,.55,.87,.4,1.4-.49,2.94-.76,4.51-.76,3.14,0,4.83,.78,4.83,2.01,0,.76-.52,1.21-1.18,1.21s-1.04-.42-1.17-1.1c-.09-.36-.38-.62-.78-.55-.42,.06-.59,.44-.5,.83,.22,1.19,1.14,2.12,2.45,2.12Z"/></svg>